<?xml version="1.0" encoding="UTF-8" standalone="no"?>
<svg
   xmlns:dc="http://purl.org/dc/elements/1.1/"
   xmlns:cc="http://creativecommons.org/ns#"
   xmlns:rdf="http://www.w3.org/1999/02/22-rdf-syntax-ns#"
   xmlns:svg="http://www.w3.org/2000/svg"
   xmlns="http://www.w3.org/2000/svg"
   xmlns:sodipodi="http://sodipodi.sourceforge.net/DTD/sodipodi-0.dtd"
   xmlns:inkscape="http://www.inkscape.org/namespaces/inkscape"
   width="170"
   height="170"
   version="1.1"
   viewBox="0 0 170 170"
   id="svg2"
   inkscape:version="0.91 r13725"
   sodipodi:docname="Estadistica.svg">
  <metadata
     id="metadata28">
    <rdf:RDF>
      <cc:Work
         rdf:about="">
        <dc:format>image/svg+xml</dc:format>
        <dc:type
           rdf:resource="http://purl.org/dc/dcmitype/StillImage" />
        <dc:title />
      </cc:Work>
    </rdf:RDF>
  </metadata>
  <sodipodi:namedview
     pagecolor="#ffffff"
     bordercolor="#666666"
     borderopacity="1"
     objecttolerance="10"
     gridtolerance="10"
     guidetolerance="10"
     inkscape:pageopacity="0"
     inkscape:pageshadow="2"
     inkscape:window-width="1301"
     inkscape:window-height="744"
     id="namedview26"
     showgrid="false"
     inkscape:zoom="2.36"
     inkscape:cx="54.500497"
     inkscape:cy="59.004038"
     inkscape:window-x="65"
     inkscape:window-y="24"
     inkscape:window-maximized="1"
     inkscape:current-layer="svg2" />
  <defs
     id="defs4">
    <mask
       id="d"
       maskUnits="userSpaceOnUse">
      <circle
         cx="400"
         cy="400"
         r="400"
         style="color:#000000;isolation:auto;mix-blend-mode:normal;solid-color:#000000;fill:#ffffff;fill-rule:evenodd;stroke-width:0;color-rendering:auto;image-rendering:auto;shape-rendering:auto"
         id="circle7" />
    </mask>
    <linearGradient
       id="c"
       x1="396.69"
       x2="120.88"
       y1="452.81"
       y2="728.62"
       gradientUnits="userSpaceOnUse">
      <stop
         stop-opacity=".42"
         offset="0"
         id="stop10" />
      <stop
         stop-opacity="0"
         offset="1"
         id="stop12" />
    </linearGradient>
    <mask
       maskUnits="userSpaceOnUse"
       id="d-3">
      <circle
         id="circle7-5"
         style="color:#000000;isolation:auto;mix-blend-mode:normal;solid-color:#000000;fill:#ffffff;fill-rule:evenodd;stroke-width:0;color-rendering:auto;image-rendering:auto;shape-rendering:auto"
         r="400"
         cy="400"
         cx="400" />
    </mask>
  </defs>
  <path
     d="m 55.841255,88.417697 0,15.595553 27.904198,14.89375 27.904187,-14.89375 0,-15.595553 L 83.745453,103.31145 55.841255,88.417697 Z M 83.745453,48.727017 39.896,72.120345 l 43.849453,23.393328 35.876817,-19.14354 0,26.941317 7.97263,0 0,-31.191105 -43.849447,-23.393328 z"
     id="path6"
     inkscape:connector-curvature="0"
     style="fill:#ffffff" />
  <g
     id="g4154">
    <circle
       r="85"
       id="circle14-9"
       style="color:#000000;isolation:auto;mix-blend-mode:normal;solid-color:#000000;fill:#1c8adb;fill-rule:evenodd;stroke-width:0;color-rendering:auto;image-rendering:auto;shape-rendering:auto"
       cy="85"
       cx="85" />
  </g>
  <g
     transform="matrix(3.6101695,0,0,4.1201849,25.177966,-4174.084)"
     id="layer1"
     inkscape:label="Capa 1"
     style="fill:#ffffff">
    <path
       style="opacity:0.98000004;fill:#ffffff;fill-opacity:1;stroke:none"
       inkscape:connector-curvature="0"
       d="m 10.666695,1035.1955 0,5.5 -3.3333478,0 0,-5.5 3.3333488,0 z m 4.999998,-7.3333 0,12.8333 -3.333343,0 0,-12.8333 3.333343,0 z m 5.000016,3.6667 0,9.1666 -3.333362,0 0,-9.1666 3.333362,0 z m 4.999988,-5.5 0,14.6666 -3.333365,0 0,-14.6666 3.333365,0 z m 1.666651,16.0416 0,-17.4166 q 0,-0.1861 -0.123582,-0.3223 -0.123584,-0.1361 -0.292969,-0.1361 l -20.8334067,0 q -0.1692487,0 -0.2929583,0.1361 -0.1235834,0.1362 -0.1235834,0.3223 l 0,17.4166 q 0,0.1861 0.1235834,0.3223 0.1235833,0.1361 0.2929583,0.1361 l 20.8333377,0 q 0.169275,0 0.292983,-0.1361 0.123584,-0.1362 0.123584,-0.3223 z M 29,1024.6539 l 0,17.4166 q 0,0.9453 -0.611984,1.6185 -0.611998,0.6732 -1.471348,0.6732 l -20.8333346,0 q -0.8593625,0 -1.4713487,-0.6732 Q 4,1043.0158 4,1042.0705 l 0,-17.4166 q 0,-0.9453 0.6119847,-1.6185 0.6119862,-0.6732 1.4713487,-0.6732 l 20.8333346,0 q 0.85935,0 1.471348,0.6732 Q 29,1023.7086 29,1024.6539 Z"
       id="path27957" />
  </g>
</svg>
