<?xml version="1.0" encoding="UTF-8" standalone="no"?>
<!-- Generator: Adobe Illustrator 16.0.0, SVG Export Plug-In . SVG Version: 6.00 Build 0)  -->

<svg
   xmlns:dc="http://purl.org/dc/elements/1.1/"
   xmlns:cc="http://creativecommons.org/ns#"
   xmlns:rdf="http://www.w3.org/1999/02/22-rdf-syntax-ns#"
   xmlns:svg="http://www.w3.org/2000/svg"
   xmlns="http://www.w3.org/2000/svg"
   xmlns:sodipodi="http://sodipodi.sourceforge.net/DTD/sodipodi-0.dtd"
   xmlns:inkscape="http://www.inkscape.org/namespaces/inkscape"
   version="1.1"
   id="Layer_1"
   x="0px"
   y="0px"
   width="1024"
   height="311"
   viewBox="0 0 1024 311"
   enable-background="new 0 0 512 512"
   xml:space="preserve"
   sodipodi:docname="Ponente.svg"
   inkscape:export-filename="/var/www/html/onlinecongress-web/congreso/ImgCategorias/Ponente1.png"
   inkscape:export-xdpi="96"
   inkscape:export-ydpi="96"
   inkscape:version="0.92.3 (2405546, 2018-03-11)"><metadata
   id="metadata19"><rdf:RDF><cc:Work
       rdf:about=""><dc:format>image/svg+xml</dc:format><dc:type
         rdf:resource="http://purl.org/dc/dcmitype/StillImage" /><dc:title></dc:title></cc:Work></rdf:RDF></metadata><defs
   id="defs17" /><sodipodi:namedview
   pagecolor="#ffffff"
   bordercolor="#666666"
   borderopacity="1"
   objecttolerance="10"
   gridtolerance="10"
   guidetolerance="10"
   inkscape:pageopacity="0"
   inkscape:pageshadow="2"
   inkscape:window-width="1299"
   inkscape:window-height="713"
   id="namedview15"
   showgrid="false"
   inkscape:zoom="0.23046875"
   inkscape:cx="-100.47792"
   inkscape:cy="108.63979"
   inkscape:window-x="67"
   inkscape:window-y="27"
   inkscape:window-maximized="1"
   inkscape:current-layer="layer1" />

<g
   inkscape:groupmode="layer"
   id="layer2"
   inkscape:label="Layer 2"><rect
     style="fill:#cccccc;fill-opacity:1;stroke-width:0.99693155"
     id="rect858"
     width="1030.8898"
     height="311.0311"
     x="-1.5340621"
     y="-0.031104952" /></g><g
   inkscape:groupmode="layer"
   id="layer1"
   inkscape:label="Layer 1"
   style="display:inline"><g
     id="g12"
     transform="matrix(0.49996921,0,0,0.48442886,3.0262014,28.590749)"
     style="fill:#ffffff"><path
       d="m 255.998,243.393 c 55.23,0 98.068,-61.57 98.068,-114.553 0,-54.053 -43.98,-98.042 -98.068,-98.042 -54.055,0 -98.033,43.989 -98.033,98.042 0,52.983 42.838,114.553 98.033,114.553 z m 0,-177.464 c 34.701,0 62.924,28.226 62.924,62.911 0,35.751 -29.018,79.421 -62.924,79.421 -33.846,0 -62.889,-43.67 -62.889,-79.421 0,-34.685 28.19,-62.911 62.889,-62.911 z"
       id="path2"
       inkscape:connector-curvature="0"
       style="fill:#ffffff" /><path
       d="m 152.531,310.5 -39.498,39.514 c -2.703,2.7 -5.849,4.767 -9.185,6.324 v 41.049 c 0,21.331 17.254,38.618 38.608,38.618 h 227.08 c 21.355,0 38.609,-17.288 38.609,-38.618 v -41.073 c -3.336,-1.557 -6.481,-3.621 -9.185,-6.322 l -39.468,-39.5 c -8.799,-8.833 -13.692,-20.567 -13.692,-33.063 0,-12.496 4.862,-24.246 13.692,-33.088 7.787,-7.755 17.829,-12.228 28.633,-13.243 -9.564,-13.777 -21.956,-25.454 -36.543,-33.812 0.129,1.604 0.319,3.192 0.319,4.813 0,29.474 -43.313,96.032 -71.724,136.541 l -11.662,-57.128 12.556,-12.558 c 1.366,-1.366 1.367,-3.582 0.002,-4.949 l -5.329,-5.336 c -2.736,-2.74 -6.449,-4.279 -10.321,-4.279 H 246.59 c -3.865,0 -7.573,1.535 -10.309,4.267 l -5.355,5.349 c -0.656,0.656 -1.025,1.547 -1.026,2.476 0,0.929 0.368,1.819 1.025,2.476 l 12.553,12.555 -11.662,57.128 C 203.405,298.123 160.124,231.574 160.124,202.1 c 0,-1.622 0.194,-3.21 0.288,-4.813 -14.617,8.348 -26.979,20.035 -36.543,33.812 10.804,1.024 20.877,5.505 28.663,13.283 18.208,18.229 18.208,47.886 -0.001,66.118 z"
       id="path4"
       inkscape:connector-curvature="0"
       style="fill:#ffffff" /><path
       d="m 79.029,338.654 c 2.986,2.995 7.053,4.678 11.313,4.678 4.225,0 8.291,-1.692 11.313,-4.687 l 39.498,-39.523 c 11.949,-11.972 11.949,-31.397 0,-43.369 -5.781,-5.775 -13.568,-9.01 -21.705,-9.016 -8.135,0 -15.916,3.231 -21.668,8.985 l -39.564,39.522 c -2.986,3.004 -4.672,7.078 -4.672,11.321 0,4.243 1.686,8.311 4.703,11.306 z"
       id="path6"
       inkscape:connector-curvature="0"
       style="fill:#ffffff" /><path
       d="m 370.877,299.114 39.469,39.516 c 3.018,2.995 7.086,4.687 11.313,4.687 4.256,0 8.326,-1.692 11.313,-4.671 l 20.814,-20.783 c 2.986,-3.001 4.672,-7.063 4.672,-11.321 0,-4.243 -1.686,-8.309 -4.672,-11.304 l -39.533,-39.525 c -5.752,-5.735 -13.539,-8.97 -21.639,-8.97 -0.031,0 -0.031,0 -0.031,0 -8.166,0 -15.953,3.234 -21.705,8.979 -11.98,11.987 -11.95,31.42 -10e-4,43.392 z"
       id="path8"
       inkscape:connector-curvature="0"
       style="fill:#ffffff" /><path
       d="M 495.412,454.762 V 368.2 c 0,-3.194 -1.27,-6.269 -3.557,-8.525 l -28.537,-28.584 -17.098,17.049 25.039,25.058 v 75.829 H 40.734 V 373.198 L 65.775,348.149 48.711,331.1 20.145,359.675 c -2.291,2.256 -3.561,5.331 -3.561,8.525 v 86.562 c -2.416,2.813 -4.004,6.355 -4.004,10.352 0,8.891 7.18,16.088 16.082,16.088 h 454.676 c 8.896,0 16.082,-7.198 16.082,-16.088 0,-3.997 -1.594,-7.538 -4.008,-10.352 z"
       id="path10"
       inkscape:connector-curvature="0"
       style="fill:#ffffff" /></g><text
     xml:space="preserve"
     style="font-style:normal;font-variant:normal;font-weight:normal;font-stretch:normal;font-size:40px;line-height:1.25;font-family:aRIAL;-inkscape-font-specification:aRIAL;letter-spacing:0px;word-spacing:0px;fill:#ffffff;fill-opacity:1;stroke:none"
     x="256.46255"
     y="204.88702"
     id="text862"><tspan
       sodipodi:role="line"
       id="tspan860"
       x="256.46255"
       y="204.88702"
       style="font-style:normal;font-variant:normal;font-weight:bold;font-stretch:normal;font-size:157.33332825px;font-family:aRIAL;-inkscape-font-specification:'aRIAL Bold';fill:#ffffff">PONENTE</tspan></text>
<text
     xml:space="preserve"
     style="font-style:normal;font-variant:normal;font-weight:normal;font-stretch:normal;font-size:31.89334869px;line-height:1.25;font-family:aRIAL;-inkscape-font-specification:aRIAL;letter-spacing:0px;word-spacing:0px;display:inline;fill:#ffffff;fill-opacity:1;stroke:none;stroke-width:0.79733372"
     x="639.69885"
     y="186.84746"
     id="text862-9-9"
     transform="scale(0.79733372,1.25418)"><tspan
       sodipodi:role="line"
       id="tspan860-1-6"
       x="639.69885"
       y="186.84746"
       style="font-style:normal;font-variant:normal;font-weight:bold;font-stretch:normal;font-size:131.82583618px;font-family:aRIAL;-inkscape-font-specification:'aRIAL Bold';fill:#ffffff;stroke-width:0.79733372">____</tspan></text>
</g></svg>