<?xml version="1.0" encoding="UTF-8" standalone="no"?>
<svg
   xmlns:dc="http://purl.org/dc/elements/1.1/"
   xmlns:cc="http://creativecommons.org/ns#"
   xmlns:rdf="http://www.w3.org/1999/02/22-rdf-syntax-ns#"
   xmlns:svg="http://www.w3.org/2000/svg"
   xmlns="http://www.w3.org/2000/svg"
   xmlns:sodipodi="http://sodipodi.sourceforge.net/DTD/sodipodi-0.dtd"
   xmlns:inkscape="http://www.inkscape.org/namespaces/inkscape"
   height="72"
   viewBox="0 0 72 72"
   width="72"
   id="svg2"
   version="1.1"
   inkscape:version="0.91 r13725"
   sodipodi:docname="Alert.svg"
   style="fill:#ffffff">
  <metadata
     id="metadata12">
    <rdf:RDF>
      <cc:Work
         rdf:about="">
        <dc:format>image/svg+xml</dc:format>
        <dc:type
           rdf:resource="http://purl.org/dc/dcmitype/StillImage" />
        <dc:title></dc:title>
      </cc:Work>
    </rdf:RDF>
  </metadata>
  <defs
     id="defs10" />
  <sodipodi:namedview
     pagecolor="#ffffff"
     bordercolor="#666666"
     borderopacity="1"
     objecttolerance="10"
     gridtolerance="10"
     guidetolerance="10"
     inkscape:pageopacity="0"
     inkscape:pageshadow="2"
     inkscape:window-width="1301"
     inkscape:window-height="744"
     id="namedview8"
     showgrid="false"
     inkscape:zoom="3.4766083"
     inkscape:cx="26.736496"
     inkscape:cy="7.9931029"
     inkscape:window-x="65"
     inkscape:window-y="24"
     inkscape:window-maximized="1"
     inkscape:current-layer="svg2" />
  <path
     d="m 0,48 24,0 0,24 -24,0 z"
     id="path4"
     inkscape:connector-curvature="0"
     style="fill:none" />
  <g
     id="g4140"
     transform="matrix(3.4102307,0,0,3.4871795,-4.8927683,-6.7179487)">
    <path
       style="fill:#f44336;fill-opacity:1"
       id="path6"
       d="M 7.58,4.08 6.15,2.65 C 3.75,4.48 2.17,7.3 2.03,10.5 l 2,0 C 4.18,7.85 5.54,5.53 7.58,4.08 Z m 12.39,6.42 2,0 C 21.82,7.3 20.24,4.48 17.85,2.65 l -1.42,1.43 c 2.02,1.45 3.39,3.77 3.54,6.42 z M 18,11 C 18,7.93 16.36,5.36 13.5,4.68 L 13.5,4 C 13.5,3.17 12.83,2.5 12,2.5 11.17,2.5 10.5,3.17 10.5,4 l 0,0.68 C 7.63,5.36 6,7.92 6,11 l 0,5 -2,2 0,1 16,0 0,-1 -2,-2 0,-5 z m -6,11 c 0.14,0 0.27,-0.01 0.4,-0.04 0.65,-0.14 1.18,-0.58 1.44,-1.18 0.1,-0.24 0.15,-0.5 0.15,-0.78 l -4,0 c 0.01,1.1 0.9,2 2.01,2 z"
       inkscape:connector-curvature="0" />
  </g>
</svg>
