<?xml version="1.0" encoding="UTF-8" standalone="no"?>
<!-- Created with Inkscape (http://www.inkscape.org/) -->

<svg
   xmlns:dc="http://purl.org/dc/elements/1.1/"
   xmlns:cc="http://creativecommons.org/ns#"
   xmlns:rdf="http://www.w3.org/1999/02/22-rdf-syntax-ns#"
   xmlns:svg="http://www.w3.org/2000/svg"
   xmlns="http://www.w3.org/2000/svg"
   xmlns:sodipodi="http://sodipodi.sourceforge.net/DTD/sodipodi-0.dtd"
   xmlns:inkscape="http://www.inkscape.org/namespaces/inkscape"
   width="170"
   height="170"
   id="svg4271"
   version="1.1"
   inkscape:version="0.48.4 r9939"
   sodipodi:docname="Nuevo documento 4">
  <defs
     id="defs4273" />
  <sodipodi:namedview
     id="base"
     pagecolor="#ffffff"
     bordercolor="#666666"
     borderopacity="1.0"
     inkscape:pageopacity="0.0"
     inkscape:pageshadow="2"
     inkscape:zoom="0.98994949"
     inkscape:cx="208.14958"
     inkscape:cy="145.6981"
     inkscape:document-units="px"
     inkscape:current-layer="layer1"
     showgrid="false"
     inkscape:window-width="1366"
     inkscape:window-height="702"
     inkscape:window-x="0"
     inkscape:window-y="27"
     inkscape:window-maximized="1" />
  <metadata
     id="metadata4276">
    <rdf:RDF>
      <cc:Work
         rdf:about="">
        <dc:format>image/svg+xml</dc:format>
        <dc:type
           rdf:resource="http://purl.org/dc/dcmitype/StillImage" />
        <dc:title></dc:title>
      </cc:Work>
    </rdf:RDF>
  </metadata>
  <g
     inkscape:label="Capa 1"
     inkscape:groupmode="layer"
     id="layer1"
     transform="translate(0,-882.3622)">
    <g
       id="g698"
       transform="matrix(0.86608758,0,0,-0.86609199,84.999567,1052.3622)">
      <path
         inkscape:connector-curvature="0"
         d="m 0,0 c 54.056,0 98.143,44.087 98.143,98.143 0,54.054 -44.087,98.141 -98.143,98.141 -54.055,0 -98.142,-44.087 -98.142,-98.141 C -98.142,44.087 -54.055,0 0,0"
         style="fill:#ffffff;fill-opacity:1;fill-rule:evenodd;stroke:none"
         id="path700" />
    </g>
    <path
       inkscape:connector-curvature="0"
       d="m 68.844262,984.64487 32.311988,0 0,58.20483 -32.311988,0 0,-58.20483 z"
       style="fill:#e6b683;fill-opacity:1;fill-rule:evenodd;stroke:none"
       id="path702" />
    <g
       id="g704"
       transform="matrix(0.86608758,0,0,-0.86609199,115.69318,914.44465)">
      <path
         inkscape:connector-curvature="0"
         d="m 0,0 c 13.194,-9.979 21.657,-25.403 21.657,-42.715 0,-30.086 -25.562,-54.474 -57.096,-54.474 -31.534,0 -57.096,24.388 -57.096,54.474 0,19.392 9.888,42.267 26.612,44.608 C -52.549,20.008 -18.965,14.342 0,0"
         style="fill:#d7910b;fill-opacity:1;fill-rule:evenodd;stroke:none"
         id="path706" />
    </g>
    <g
       id="g708"
       transform="matrix(0.86608758,0,0,-0.86609199,86.65561,923.99029)">
      <path
         inkscape:connector-curvature="0"
         d="m 0,0 c 25.189,0 42.741,-17.486 39.585,-50.222 -0.898,-9.319 8.164,-4.398 8.164,-7.764 0,-2.205 2.087,-0.549 1.804,-2.678 -3.289,-24.727 -25.076,-43.83 -51.465,-43.83 -26.38,0 -48.163,19.093 -51.461,43.809 -0.285,2.136 4.672,3.039 4.672,5.25 6.118,-8.899 5.074,-1.099 4.545,4.086 C -48.971,-4.265 -26.402,0 0,0"
         style="fill:#fad3a8;fill-opacity:1;fill-rule:evenodd;stroke:none"
         id="path710" />
    </g>
    <g
       id="g712"
       transform="matrix(0.86608758,0,0,-0.86609199,104.87723,985.27054)">
      <path
         inkscape:connector-curvature="0"
         d="M 0,0 C -12.389,-12.815 -33.513,-12.815 -45.9,0 L 0,0 z"
         style="fill:#e28d66;fill-opacity:1;fill-rule:evenodd;stroke:none"
         id="path714" />
    </g>
    <g
       id="g716"
       transform="matrix(0.86608758,0,0,-0.86609199,96.901516,990.96443)">
      <path
         inkscape:connector-curvature="0"
         d="M 0,0 C -8.644,-4.05 -18.84,-4.05 -27.483,0 -19.235,7.002 -8.248,7.003 0,0"
         style="fill:#eda17d;fill-opacity:1;fill-rule:evenodd;stroke:none"
         id="path718" />
    </g>
    <g
       id="g720"
       transform="matrix(0.86608758,0,0,-0.86609199,69.775396,953.14901)">
      <path
         inkscape:connector-curvature="0"
         d="m 0,0 c 2.467,0 4.466,-3.363 4.466,-7.514 0,-4.149 -1.999,-7.513 -4.466,-7.513 -2.467,0 -4.467,3.364 -4.467,7.513 0,4.151 2,7.514 4.467,7.514"
         style="fill:#333333;fill-opacity:1;fill-rule:evenodd;stroke:none"
         id="path722" />
    </g>
    <g
       id="g724"
       transform="matrix(0.86608758,0,0,-0.86609199,70.339476,954.13011)">
      <path
         inkscape:connector-curvature="0"
         d="M 0,0 C 1.451,0 2.629,-1.176 2.629,-2.628 2.629,-4.08 1.451,-5.257 0,-5.257 c -1.452,0 -2.629,1.177 -2.629,2.629 C -2.629,-1.176 -1.452,0 0,0"
         style="fill:#ffffff;fill-opacity:1;fill-rule:evenodd;stroke:none"
         id="path726" />
    </g>
    <g
       id="g728"
       transform="matrix(0.86608758,0,0,-0.86609199,100.22547,953.14901)">
      <path
         inkscape:connector-curvature="0"
         d="m 0,0 c 2.466,0 4.466,-3.363 4.466,-7.514 0,-4.149 -2,-7.513 -4.466,-7.513 -2.467,0 -4.468,3.364 -4.468,7.513 C -4.468,-3.363 -2.467,0 0,0"
         style="fill:#333333;fill-opacity:1;fill-rule:evenodd;stroke:none"
         id="path730" />
    </g>
    <g
       id="g732"
       transform="matrix(0.86608758,0,0,-0.86609199,100.78955,954.13011)">
      <path
         inkscape:connector-curvature="0"
         d="M 0,0 C 1.451,0 2.628,-1.176 2.628,-2.628 2.628,-4.08 1.451,-5.257 0,-5.257 c -1.452,0 -2.63,1.177 -2.63,2.629 C -2.63,-1.176 -1.452,0 0,0"
         style="fill:#ffffff;fill-opacity:1;fill-rule:evenodd;stroke:none"
         id="path734" />
    </g>
    <g
       id="g736"
       transform="matrix(0.86608758,0,0,-0.86609199,104.7402,921.1256)">
      <path
         inkscape:connector-curvature="0"
         d="m 0,0 c 22.163,-14.598 26.451,-39.193 25.157,-46.734 -1.294,-7.54 -20.308,-1.82 -42.471,12.778 C -39.478,-19.358 -56.395,-1.411 -55.102,6.13 -53.808,13.67 -22.162,14.599 0,0"
         style="fill:#d7910b;fill-opacity:1;fill-rule:evenodd;stroke:none"
         id="path738" />
    </g>
    <g
       id="g740"
       transform="matrix(0.86608758,0,0,-0.86609199,34.199803,956.0602)">
      <path
         inkscape:connector-curvature="0"
         d="m 0,0 c 2.869,1.23 7.405,-3.628 10.132,-10.851 2.726,-7.222 2.612,-14.074 -0.257,-15.303 -2.869,-1.23 -7.405,3.629 -10.132,10.85 C -2.983,-8.081 -2.869,-1.229 0,0"
         style="fill:#fad3a8;fill-opacity:1;fill-rule:evenodd;stroke:none"
         id="path742" />
    </g>
    <g
       id="g744"
       transform="matrix(0.86608758,0,0,-0.86609199,135.2005,956.0602)">
      <path
         inkscape:connector-curvature="0"
         d="m 0,0 c -3.724,1.23 -8.676,-3.628 -11.061,-10.851 -2.383,-7.222 -1.297,-14.074 2.427,-15.303 3.724,-1.23 8.677,3.629 11.061,10.85 C 4.812,-8.081 3.726,-1.229 0,0"
         style="fill:#fad3a8;fill-opacity:1;fill-rule:evenodd;stroke:none"
         id="path746" />
    </g>
    <g
       id="g748"
       transform="matrix(0.86608758,0,0,-0.86609199,93.736568,985.27054)">
      <path
         inkscape:connector-curvature="0"
         d="M 0,0 C -0.562,-6.089 -19.995,-5.47 -20.175,0 L 0,0 z"
         style="fill:#ffffff;fill-opacity:1;fill-rule:evenodd;stroke:none"
         id="path750" />
    </g>
    <g
       id="g752"
       transform="matrix(0.86608758,0,0,-0.86609199,133.32872,1037.2876)">
      <path
         inkscape:connector-curvature="0"
         d="m 0,0 c -9.653,7.865 -27.584,14.034 -37.04,17.592 -1.752,-6.623 -9.485,-11.614 -18.761,-11.614 -9.276,0 -17.01,4.991 -18.762,11.614 -9.455,-3.558 -27.386,-9.727 -37.04,-17.592 15.844,-10.972 35.071,-17.405 55.802,-17.405 20.731,0 39.957,6.433 55.801,17.405"
         style="fill:#7991bf;fill-opacity:1;fill-rule:evenodd;stroke:none"
         id="path754" />
    </g>
    <g
       id="g756"
       transform="matrix(0.86608758,0,0,-0.86609199,90.170713,976.84131)">
      <path
         inkscape:connector-curvature="0"
         d="m 0,0 c 1.498,1.032 3.736,0.035 2.238,-0.998 -4.537,-3.133 -11.884,-3.134 -16.422,0 -1.499,1.034 0.522,1.845 2.238,0.998 3.405,-1.682 8.8,-1.615 11.946,0"
         style="fill:#c79c6d;fill-opacity:1;fill-rule:nonzero;stroke:none"
         id="path758" />
    </g>
    <g
       id="g760"
       transform="matrix(0.86608758,0,0,-0.86609199,60.324469,946.0435)">
      <path
         inkscape:connector-curvature="0"
         d="M 0,0 C -1.866,-2.208 -4.774,-1.213 -2.909,0.99 1.758,6.502 11.454,9.166 18.102,6.783 20.805,5.813 18.382,2.291 15.688,3.257 11.107,4.898 3.23,3.809 0,0"
         style="fill:#d7910b;fill-opacity:1;fill-rule:nonzero;stroke:none"
         id="path762" />
    </g>
    <g
       id="g764"
       transform="matrix(0.86608758,0,0,-0.86609199,109.67543,946.04427)">
      <path
         inkscape:connector-curvature="0"
         d="M 0,0 C 1.866,-2.207 4.774,-1.213 2.909,0.991 -1.758,6.503 -11.454,9.167 -18.103,6.784 -20.805,5.814 -18.382,2.292 -15.688,3.258 -11.107,4.899 -3.231,3.81 0,0"
         style="fill:#d7910b;fill-opacity:1;fill-rule:nonzero;stroke:none"
         id="path766" />
    </g>
    <g
       id="g768"
       transform="matrix(0.86608758,0,0,-0.86609199,85.406365,999.67184)">
      <path
         inkscape:connector-curvature="0"
         d="m 0,0 c 3.456,0 4.836,-8.881 8.605,-11.083 9.568,-5.588 14.751,18.447 14.927,23.933 0.114,3.547 1.832,3.448 2.028,0.33 C 26.21,2.783 32.624,-21.431 0,-21.431 c -32.625,0 -26.211,24.214 -25.561,34.611 0.196,3.118 1.914,3.217 2.028,-0.33 0.176,-5.486 5.359,-29.521 14.927,-23.933 C -4.837,-8.881 -3.456,0 0,0"
         style="fill:#d7910b;fill-opacity:1;fill-rule:nonzero;stroke:none"
         id="path770" />
    </g>
  </g>
</svg>
