<?xml version="1.0" encoding="UTF-8" standalone="no"?>
<!-- Created with Inkscape (http://www.inkscape.org/) -->

<svg
   xmlns:dc="http://purl.org/dc/elements/1.1/"
   xmlns:cc="http://creativecommons.org/ns#"
   xmlns:rdf="http://www.w3.org/1999/02/22-rdf-syntax-ns#"
   xmlns:svg="http://www.w3.org/2000/svg"
   xmlns="http://www.w3.org/2000/svg"
   xmlns:sodipodi="http://sodipodi.sourceforge.net/DTD/sodipodi-0.dtd"
   xmlns:inkscape="http://www.inkscape.org/namespaces/inkscape"
   width="85mm"
   height="79mm"
   viewBox="0 0 85 79"
   version="1.1"
   id="svg356"
   sodipodi:docname="Twitter.svg"
   inkscape:version="0.92.3 (2405546, 2018-03-11)">
  <defs
     id="defs350">
    <clipPath
       clipPathUnits="userSpaceOnUse"
       id="clipPath70">
      <path
         d="M 0,0 H 8077 V 8757 H 0 Z"
         id="path68"
         inkscape:connector-curvature="0" />
    </clipPath>
    <clipPath
       clipPathUnits="userSpaceOnUse"
       id="clipPath76">
      <path
         d="m 0,5615.1 c -0.0820313,12.23 2.05078,23.19 6.89844,32.46 10.12106,19.34 35.33206,38.55 69.93356,57.13 v 0 C 42.2305,5686.11 17.0195,5666.9 6.89844,5647.56 2.23438,5638.65 0.0820313,5628.17 0,5616.5 v -1.4"
         id="path74"
         inkscape:connector-curvature="0" />
    </clipPath>
  </defs>
  <sodipodi:namedview
     id="base"
     pagecolor="#ffffff"
     bordercolor="#666666"
     borderopacity="1.0"
     inkscape:pageopacity="0.0"
     inkscape:pageshadow="2"
     inkscape:zoom="0.98994949"
     inkscape:cx="198.32159"
     inkscape:cy="93.606267"
     inkscape:document-units="mm"
     inkscape:current-layer="layer1"
     showgrid="false"
     inkscape:window-width="1299"
     inkscape:window-height="713"
     inkscape:window-x="67"
     inkscape:window-y="27"
     inkscape:window-maximized="1" />
  <metadata
     id="metadata353">
    <rdf:RDF>
      <cc:Work
         rdf:about="">
        <dc:format>image/svg+xml</dc:format>
        <dc:type
           rdf:resource="http://purl.org/dc/dcmitype/StillImage" />
        <dc:title></dc:title>
      </cc:Work>
    </rdf:RDF>
  </metadata>
  <g
     inkscape:label="Capa 1"
     inkscape:groupmode="layer"
     id="layer1"
     transform="translate(0,-218)">
    <path
       d="m 58.688462,296 c -1.26188,0 -2.54564,-0.2152 -3.80118,-0.66851 l -18.01389,-6.50593 h 30.3015 c 0.69215,0 1.37018,-0.0632 2.02776,-0.18345 -1.65558,4.53778 -5.94395,7.35824 -10.51419,7.35789 M 6.5387417,277.66367 c -4.577295,-2.69452 -6.73594204,-8.34602 -4.86622,-13.52338 l 4.85634,-13.44613 v 26.48973 c 0,0.16051 0.004,0.32068 0.01,0.47978 M 78.366882,263.26998 v -26.93987 c 0,-0.0123 0,-0.0247 0,-0.037 4.57835,2.66806 6.7437,8.30439 4.87962,13.46658 l -4.87962,13.51033 m -62.67379,-37.94834 c 1.65558,-4.53778 5.94395,-7.35824 10.51419,-7.35824 1.26188,0 2.54599,0.21555 3.80118,0.66887 l 18.01389,6.50592 h -30.30114 c -0.69286,0 -1.37019,0.0628 -2.02812,0.18345"
       style="fill:#ac58b2;fill-opacity:1;fill-rule:nonzero;stroke:none;stroke-width:0.03527778"
       id="path252"
       inkscape:connector-curvature="0" />
    <path
       d="m 36.873392,288.82556 h -18.70286 c -6.26887,0 -11.3806203,-4.95477 -11.6317903,-11.16189 0.59372,0.3496 1.22766,0.64911 1.89935,0.89147 l 28.4353003,10.27042 m 32.32926,-0.18345 c 0.004,-0.0116 0.009,-0.0233 0.0127,-0.0349 L 78.366762,263.27 v 14.3637 c 0,5.48887 -3.95076,10.05452 -9.16411,11.00843 M 6.5288617,250.69416 v -14.36405 c 0,-5.48852 3.9511103,-10.05417 9.1641103,-11.00843 -0.004,0.0116 -0.008,0.0233 -0.0127,0.0353 l -9.1514103,25.3372 M 78.366762,236.29307 c -0.57785,-0.33691 -1.1938,-0.62618 -1.84538,-0.86149 l -28.49915,-10.29335 h 19.15266 c 6.16867,0 11.17176,4.99075 11.19187,11.15484"
       style="fill:#65c1ee;fill-opacity:1;fill-rule:nonzero;stroke:none;stroke-width:0.03527778"
       id="path254"
       inkscape:connector-curvature="0" />
    <path
       d="m 67.174892,288.82556 h -30.3015 L 8.4380917,278.55514 c -0.67169,-0.24236 -1.30563,-0.54187 -1.89935,-0.89147 -0.006,-0.1591 -0.01,-0.31927 -0.01,-0.47978 v -26.48973 l 9.1514003,-25.3372 c 0.004,-0.012 0.008,-0.0236 0.0127,-0.0353 0.65793,-0.12065 1.33527,-0.18345 2.02812,-0.18345 h 30.30114 l 28.49928,10.29335 c 0.65158,0.23531 1.26753,0.52458 1.84538,0.86149 0,0.0123 0,0.0247 0,0.037 v 26.93987 l -9.15141,25.33721 c -0.004,0.0116 -0.008,0.0233 -0.0127,0.0349 -0.65758,0.1203 -1.33562,0.18345 -2.02777,0.18345"
       style="fill:#5f99d8;fill-opacity:1;fill-rule:nonzero;stroke:none;stroke-width:0.03527778"
       id="path256"
       inkscape:connector-curvature="0" />
    <path
       d="m 67.626092,241.92234 c -1.76848,0.77364 -3.6696,1.29364 -5.66773,1.52859 2.03976,-1.20227 3.60186,-3.10515 4.34199,-5.37704 -1.90712,1.11548 -4.02272,1.9244 -6.27133,2.36008 -1.7974,-1.88806 -4.36351,-3.06846 -7.20196,-3.06846 -5.45042,0 -9.86896,4.35187 -9.86896,9.71691 0,0.76236 0.0878,1.50001 0.25224,2.21368 -8.20138,-0.40499 -15.47566,-4.27461 -20.34258,-10.15259 -0.84843,1.43475 -1.33844,3.10445 -1.33844,4.88492 0,3.36973 1.74696,6.34365 4.39209,8.08637 -1.61573,-0.0501 -3.14008,-0.48754 -4.47111,-1.21462 0,0.0406 0,0.0819 0,0.12101 0,1.24389 0.24271,2.42887 0.67522,3.52178 1.20579,3.04694 3.91971,5.34881 7.24394,6.00957 -0.83044,0.21872 -1.70004,0.34043 -2.6035,0.34043 -0.63359,0 -1.25166,-0.0617 -1.85632,-0.1771 1.25871,3.85939 4.9029,6.67032 9.22055,6.74758 -3.37926,2.60844 -7.63235,4.16102 -12.25938,4.16102 -0.79798,0 -1.58185,-0.0459 -2.35691,-0.13582 4.37198,2.75625 9.5624,4.36492 15.1317,4.36492 15.43085,0 24.91281,-10.68988 27.41401,-21.7798 0.44273,-1.95968 0.67133,-3.93382 0.67133,-5.86528 0,-0.41875 -0.008,-0.84032 -0.0261,-1.2566 1.92653,-1.36913 3.60081,-3.08045 4.92125,-5.02955"
       style="fill:#ffffff;fill-opacity:1;fill-rule:nonzero;stroke:none;stroke-width:0.03527778"
       id="path258"
       inkscape:connector-curvature="0" />
  </g>
</svg>
