<?xml version="1.0" encoding="UTF-8" standalone="no"?>
<!-- Generator: Adobe Illustrator 16.0.0, SVG Export Plug-In . SVG Version: 6.00 Build 0)  -->

<svg
   xmlns:dc="http://purl.org/dc/elements/1.1/"
   xmlns:cc="http://creativecommons.org/ns#"
   xmlns:rdf="http://www.w3.org/1999/02/22-rdf-syntax-ns#"
   xmlns:svg="http://www.w3.org/2000/svg"
   xmlns="http://www.w3.org/2000/svg"
   xmlns:sodipodi="http://sodipodi.sourceforge.net/DTD/sodipodi-0.dtd"
   xmlns:inkscape="http://www.inkscape.org/namespaces/inkscape"
   version="1.1"
   id="Layer_1"
   x="0px"
   y="0px"
   width="14px"
   height="14px"
   viewBox="0 0 14 14"
   style="enable-background:new 0 0 14 14;"
   xml:space="preserve"
   inkscape:version="0.48.4 r9939"
   sodipodi:docname="Calendar.svg"><metadata
     id="metadata39"><rdf:RDF><cc:Work
         rdf:about=""><dc:format>image/svg+xml</dc:format><dc:type
           rdf:resource="http://purl.org/dc/dcmitype/StillImage" /></cc:Work></rdf:RDF></metadata><defs
     id="defs37" /><sodipodi:namedview
     pagecolor="#ffffff"
     bordercolor="#666666"
     borderopacity="1"
     objecttolerance="10"
     gridtolerance="10"
     guidetolerance="10"
     inkscape:pageopacity="0"
     inkscape:pageshadow="2"
     inkscape:window-width="1366"
     inkscape:window-height="702"
     id="namedview35"
     showgrid="false"
     inkscape:zoom="16.857143"
     inkscape:cx="7"
     inkscape:cy="7"
     inkscape:window-x="0"
     inkscape:window-y="27"
     inkscape:window-maximized="1"
     inkscape:current-layer="Layer_1" /><path
     fill="#FFF"
     d="M0,8h2V6H0V8z M3,8h2V6H3V8z M6,8h2V6H6V8z M9,8h2V6H9V8z M12,8h2V6h-2V8z M0,11h2V9H0V11z M3,11h2V9H3V11z M6,11h2V9H6V11z   M9,11h2V9H9V11z M12,11h2V9h-2V11z M0,14h2v-2H0V14z M3,14h2v-2H3V14z M6,14h2v-2H6V14z M9,14h2v-2H9V14z M12,1  c0-0.553-0.447-1-1-1s-1,0.447-1,1H4c0-0.553-0.447-1-1-1S2,0.447,2,1H0v4h14V1H12z"
     id="path3"
     style="fill:#666666" /><g
     id="g5" /><g
     id="g7" /><g
     id="g9" /><g
     id="g11" /><g
     id="g13" /><g
     id="g15" /><g
     id="g17" /><g
     id="g19" /><g
     id="g21" /><g
     id="g23" /><g
     id="g25" /><g
     id="g27" /><g
     id="g29" /><g
     id="g31" /><g
     id="g33" /></svg>